<svg width="168" height="53" viewBox="0 0 168 53" fill="none" xmlns="http://www.w3.org/2000/svg">
<g filter="url(#filter0_d_6135_378)">
<path fill-rule="evenodd" clip-rule="evenodd" d="M6.2704 3.12793C3.81391 3.68889 3.5709 5.35334 5.51897 8.27437C5.74151 8.60807 5.97561 8.93009 6.03919 8.98982C6.21642 9.15648 7.00357 9.78471 7.77327 10.3739C8.46725 10.9051 10.8309 12.2281 11.0991 12.2355C11.1774 12.2376 11.5015 12.3783 11.8195 12.5481C12.1374 12.7179 12.4677 12.8573 12.5534 12.858C12.6392 12.8586 12.8733 12.937 13.0737 13.0324C13.274 13.1277 13.7917 13.3258 14.2239 13.4728C16.2877 14.174 15.9241 15.5078 13.8071 15.0023C13.5405 14.9386 12.8541 14.7927 12.2819 14.678C11.7096 14.5633 11.1374 14.4194 11.0102 14.358C9.57452 13.6649 6.67502 12.8776 6.67502 13.1807C6.67502 13.6332 8.15234 16.0046 8.82887 16.6381C9.62169 17.3806 11.7269 18.7574 12.0693 18.7574C12.151 18.7574 12.4404 18.8639 12.7123 18.9942C13.5295 19.3856 14.3382 19.6371 14.777 19.6365C16.2223 19.6344 16.986 20.1387 16.573 20.8229C16.3403 21.2084 13.7179 21.3038 12.6208 20.9666C11.2507 20.5455 10.5212 20.6054 10.8189 21.1147C10.9366 21.3159 13.5087 23.1466 13.6763 23.1485C13.7438 23.1491 14.0299 23.2735 14.3121 23.4246C15.4229 24.0197 19.6278 24.3028 21.5303 23.9106C23.7431 23.4544 23.88 23.4213 24.1162 23.2841C24.2433 23.2102 24.4799 23.1497 24.6416 23.1497C26.1569 23.1497 29.1692 21.3508 30.9276 19.3955C32.441 17.7128 32.4985 17.4317 31.5325 16.4357C31.3316 16.2287 31.0813 15.8616 30.9761 15.62C30.7239 15.0406 27.5461 11.5941 26.4435 10.7043C25.3417 9.81508 23.418 8.40351 22.8736 8.08462C22.6435 7.94972 22.143 7.64213 21.7615 7.40092C21.38 7.1596 20.7818 6.8175 20.4321 6.64067C20.0824 6.46372 19.6922 6.26531 19.565 6.19981C19.1483 5.98483 17.3844 5.31619 16.6171 5.08239C16.2038 4.9564 15.7356 4.79614 15.5766 4.72624C15.4177 4.65634 15.0015 4.51503 14.6518 4.41212C12.996 3.9252 12.6035 3.80661 12.2737 3.69379C12.0784 3.62702 11.7759 3.57243 11.6013 3.57243C11.4269 3.57243 11.1705 3.50479 11.0315 3.42221C10.391 3.04096 7.44761 2.85912 6.2704 3.12793ZM35.7213 17.7236C35.1284 18.3248 34.297 20.4848 33.836 22.6213C33.5847 23.7861 33.529 23.9199 33.2663 23.9882C31.5146 24.4433 30.9632 26.2195 32.331 27.0012C32.6125 27.1621 32.8606 27.3129 32.8822 27.3364C32.9038 27.36 32.838 27.797 32.7358 28.3077C32.074 31.6177 32.262 32.8129 33.4444 32.8129C34.1457 32.8129 34.4723 32.359 34.6349 31.1582C35.0283 28.2535 35.3579 26.9166 35.6219 27.1545C35.7209 27.2438 35.8043 27.2444 35.8854 27.1564C35.9506 27.0857 36.3578 27.0446 36.7909 27.0653L37.5781 27.1028L37.8857 28.4205C38.6739 31.7961 39.197 32.9384 39.9553 32.9384C40.5499 32.9384 40.7462 32.3109 40.5481 31.0435C40.4789 30.6018 40.3711 29.9014 40.3082 29.4873C40.2453 29.0731 40.1099 28.3513 40.0073 27.8831C39.8261 27.057 39.8275 27.0235 40.054 26.7536C40.8288 25.8297 40.6528 24.7208 39.6538 24.2318C39.1217 23.9714 39.0557 23.7185 39.0311 21.8458C39.0237 21.2861 38.9927 20.941 38.9621 21.0791C38.7774 21.9127 38.6448 21.5536 38.4843 19.7853C38.3774 18.6069 38.1133 18.0044 37.7037 18.0044C37.6243 18.0044 37.4048 17.8632 37.2159 17.6907C36.7413 17.2572 36.1688 17.2698 35.7213 17.7236ZM85.7228 17.5958C85.1256 17.9979 84.5826 19.2989 83.8543 22.0725L83.3627 23.9444L82.8469 24.1076C81.2466 24.6141 80.9706 27.1656 82.5162 27.1656C82.8056 27.1656 82.8048 27.4136 82.5104 28.797C82.3856 29.3837 82.2494 30.3541 82.2076 30.9533L82.1318 32.0429L82.4865 32.4279C83.3922 33.4111 84.2419 32.7894 84.5332 30.9305C85.0595 27.5712 85.2139 26.9438 85.4601 27.1656C85.5657 27.2608 85.636 27.2627 85.6878 27.1717C85.7791 27.0112 87.328 26.9947 87.4183 27.1533C87.4538 27.2154 87.662 28.0389 87.8811 28.9831C88.6348 32.2317 89.6213 33.7254 90.3089 32.6594C90.5917 32.2213 90.3809 30.1815 89.7894 27.6316C89.6592 27.0705 89.6668 27.0348 90.014 26.5776C90.646 25.7454 90.3752 24.5825 89.4585 24.1916C88.9887 23.9913 88.8704 23.5508 88.8704 22.0018C88.8704 21.6557 88.8212 21.5183 88.697 21.5183C88.6016 21.5183 88.5236 21.4641 88.5236 21.3977C88.5236 19.7129 88.1495 18.2168 87.6886 18.0586C87.5437 18.0089 87.2644 17.8352 87.0677 17.6726C86.6486 17.3262 86.1643 17.2986 85.7228 17.5958ZM59.4699 17.5843C59.4265 17.6313 59.3911 18.1263 59.3909 18.6842C59.3907 21.4451 58.9497 24.3664 58.1426 26.952C57.7408 28.2397 57.6582 28.1348 57.323 25.9106C57.1826 24.9788 56.9947 23.8494 56.9055 23.4007C56.0711 19.2048 55.8822 18.6512 55.096 18.0985C53.7485 17.1513 53.3166 18.4917 53.951 21.6513C54.509 24.4304 54.9792 27.5873 55.0642 29.125C55.1263 30.2489 55.1866 30.5692 55.4041 30.9305C55.5496 31.172 55.7058 31.5109 55.7512 31.6834C56.5443 34.6938 60.749 29.6459 61.8665 24.3419C62.7431 20.1811 62.3972 17.8504 60.8781 17.6815L60.1209 17.5973L60.0406 19.549C59.9261 22.3392 59.6172 24.2222 58.9046 26.4754C58.5327 27.6514 58.0049 28.723 57.8699 28.5764C57.7922 28.4921 57.8291 28.29 57.9817 27.9649C59.1315 25.5148 60.4156 16.5576 59.4699 17.5843ZM100.026 17.8297C98.9454 17.9227 97.0648 18.0142 95.8471 18.033C94.6294 18.0517 93.693 18.1087 93.7662 18.1594C93.8394 18.2101 94.1693 18.2524 94.4994 18.2535C94.8294 18.2545 95.1368 18.321 95.1826 18.4014C95.2451 18.5112 94.8353 18.5271 93.5269 18.4656C90.7977 18.3374 90.4218 18.9801 92.0815 20.9376C92.4714 21.3977 93.0475 21.5571 94.5929 21.6329L96.0957 21.7065L96.0799 22.1458C95.8967 27.2346 95.8992 30.9541 96.0863 31.4858C96.5737 32.8711 97.8283 32.8859 98.0662 31.5092C98.1687 30.9165 98.3479 30.9272 98.3581 31.5266C98.3647 31.9041 98.386 31.9475 98.4657 31.7462C98.5203 31.6081 98.5687 29.2221 98.5732 26.444C98.5776 23.6659 98.6144 21.3928 98.6549 21.3928C98.9573 21.3928 101.712 20.8504 101.973 20.7395C102.178 20.6524 102.368 20.4301 102.478 20.1491C102.574 19.9014 102.761 19.4639 102.892 19.1772C103.122 18.6757 103.123 18.6428 102.928 18.3199C102.817 18.1353 102.754 17.904 102.788 17.806C102.864 17.5927 102.77 17.5935 100.026 17.8297ZM42.5705 18.0529C42.3796 18.1431 42.1522 18.3103 42.0649 18.4245C41.9778 18.5385 41.8404 18.6319 41.7599 18.6319C41.6794 18.6319 41.4972 18.7342 41.355 18.859L41.0965 19.0863L41.3011 20.114C41.4244 20.7333 41.5631 21.1418 41.65 21.1418C41.842 21.1418 41.8841 21.2723 42.3994 23.4635C42.6428 24.4988 43.002 26.0202 43.1976 26.8442C43.6149 28.6028 43.5934 28.4205 43.3838 28.4205C43.1465 28.4205 43.0538 28.166 42.7441 26.6636C42.5948 25.9389 42.4314 25.2943 42.3811 25.2312C42.2674 25.0883 42.3642 25.8491 42.5922 26.8879C42.8012 27.8403 42.7477 28.0871 42.3664 27.9297C40.4956 27.1576 40.3795 29.6908 42.2425 30.6358C43.1716 31.1072 43.3621 31.2554 43.5002 31.614C43.8535 32.5318 44.8563 32.831 45.661 32.2586C45.9015 32.0874 45.9889 32.0879 46.5042 32.2633C52.5463 34.3196 54.8381 29.7041 50.5365 24.1425C46.9582 19.516 44.0984 17.3299 42.5705 18.0529ZM66.6322 18.1883C66.1267 18.3839 65.5786 18.9026 65.3289 19.4216C65.2362 19.6144 65.0438 19.8202 64.9015 19.8789C63.3298 20.5276 62.6355 27.5649 63.8635 30.3999C65.3045 33.7265 69.0902 33.1718 70.266 29.4615C71.1451 26.6882 70.3478 19.523 69.1061 19.0356C69.0084 18.9973 68.7414 18.7496 68.5128 18.4852C68.0439 17.9431 67.4914 17.8557 66.6322 18.1883ZM72.3668 18.1342C71.8952 18.34 71.8347 18.7122 71.9763 20.537C72.3168 24.9255 72.4699 26.6558 72.5733 27.2828C72.635 27.6578 72.6857 28.9223 72.6857 30.0925C72.6857 32.7751 72.7203 32.8179 74.5353 32.372C75.899 32.0371 78.0392 31.8011 79.4962 31.8252C81.3018 31.8551 81.6257 31.6068 81.1897 30.5269C81.0983 30.3002 80.9963 29.9729 80.9632 29.7997C80.8207 29.0525 78.7549 28.7875 76.5006 29.2271C75.37 29.4475 75.4675 29.7334 75.2135 25.4518C75.0913 23.3919 74.9204 21.1983 74.8338 20.5771L74.6763 19.4476L74.6637 20.3021C74.6501 21.2135 74.4793 21.3479 74.3594 20.5413C74.2801 20.0072 74.0779 18.9203 74.0002 18.6106C73.9062 18.2361 72.8436 17.9262 72.3668 18.1342ZM105.178 18.221C103.331 19.0114 103.013 28.8634 104.815 29.484C104.948 29.5301 105.261 29.8927 105.509 30.2898C107.878 34.0754 111.761 32.8111 112.913 27.8795C113.646 24.7396 113.42 19.169 112.531 18.4557L112.203 18.1927L111.948 18.5378C111.792 18.7501 111.582 18.8829 111.402 18.8829C110.657 18.8829 110.605 19.1009 110.598 22.2448C110.585 28.6265 109.968 30.3123 108.125 29.0016C107.748 28.7335 107.073 26.189 106.904 24.4047L106.804 23.338L106.841 24.7654C106.862 25.5595 106.836 26.1177 106.782 26.0236C106.354 25.2724 106.323 20.8985 106.743 20.5298C107.81 19.5923 106.497 17.6563 105.178 18.221ZM115.453 18.3533C114.903 18.6515 114.76 19.1611 114.795 20.6914C114.816 21.5976 114.785 21.9496 114.679 21.9883C114.571 22.0279 114.532 21.7473 114.523 20.8699C114.51 19.5612 114.397 18.914 114.247 19.2966C114.104 19.6631 114.277 28.9524 114.455 30.4523C114.651 32.1032 114.802 32.3892 115.536 32.5087C116.522 32.6692 116.541 32.5937 116.471 28.7603C116.405 25.1326 116.467 24.9029 116.964 26.919C118.339 32.4934 118.327 32.4618 118.957 32.4122L119.448 32.3737L119.693 31.4952C120.11 29.9944 120.477 28.1296 120.459 27.6048C120.441 27.1082 121.039 24.233 121.438 22.8987C121.637 22.2347 121.876 22.0633 121.876 22.585C121.876 22.7231 121.927 22.9207 121.99 23.0242C122.053 23.1278 122.215 23.7772 122.349 24.4674C122.484 25.1577 122.677 26.1459 122.777 26.6636C123.059 28.116 123.321 30.1961 123.321 30.9862C123.321 31.8998 123.436 32.1173 124.118 32.4922C125.481 33.2422 126.198 31.6837 125.702 29.048C125.145 26.0826 124.907 24.7563 124.645 23.1579C124.238 20.6663 123.857 19.5025 123.177 18.6753C122.587 17.9584 120.849 18.3912 120.724 19.2859C120.177 23.2224 118.831 28.7914 118.644 27.8961C118.149 25.5252 117.31 20.4414 117.31 19.8116C117.309 19.4652 116.807 18.5141 116.537 18.348C116.227 18.1578 115.811 18.1598 115.453 18.3533ZM72.7357 18.7397C72.6894 18.922 72.662 20.3418 72.6748 21.8948C72.7102 26.1877 72.4955 25.2987 72.1414 19.6859C72.0809 18.7287 72.0927 18.6575 72.3424 18.4676C72.683 18.2086 72.8427 18.319 72.7357 18.7397ZM116.827 19.981C116.885 20.1018 116.995 20.5959 117.072 21.0791C117.149 21.5622 117.312 22.479 117.434 23.1162C117.761 24.8249 117.541 25.1303 117.161 23.495C116.42 20.3059 116.28 18.8279 116.827 19.981ZM67.4505 20.2947C67.9863 21.0525 68.4337 23.7108 68.4485 26.2244C68.4699 29.8689 67.5861 31.5786 66.1093 30.7496C65.3032 30.2971 64.9953 29.3748 65.6991 29.5209C66.0349 29.5905 66.0343 29.5974 65.8088 28.1068C65.4979 26.0531 65.6473 23.4229 66.1579 21.9575C66.6867 20.4404 67.1405 19.8565 67.4505 20.2947ZM93.2408 20.8183C94.078 21.0133 94.212 21.1006 93.8262 21.2003C93.4746 21.291 92.4287 21.0019 92.3668 20.7967C92.309 20.6057 92.33 20.6063 93.2408 20.8183ZM36.8316 21.9889C37.1592 24.3007 37.1649 24.2737 36.3531 24.2773C35.7594 24.2798 35.739 24.1449 36.1036 22.6284C36.5494 20.7751 36.6473 20.689 36.8316 21.9889ZM86.7987 22.868C86.9373 24.218 86.9131 24.274 86.1894 24.2773C85.6087 24.2799 85.604 24.2511 85.9399 22.7636C86.4109 20.6784 86.5758 20.6984 86.7987 22.868ZM66.5677 21.717C66.5733 21.8632 66.6007 21.8929 66.6375 21.7929C66.6709 21.7023 66.6668 21.594 66.6284 21.5523C66.59 21.5106 66.5627 21.5847 66.5677 21.717ZM45.9194 22.6957C48.4401 24.6077 51.7194 29.0445 51.2331 29.8848C50.793 30.6455 47.9798 30.5744 46.1779 29.7571C45.6881 29.5349 45.7242 29.6548 45.2917 26.8118C45.0992 25.5475 44.8398 23.9708 44.7152 23.3081C44.4191 21.735 44.5591 21.6637 45.9194 22.6957ZM42.0503 24.1537C42.0503 24.2457 42.0849 24.2833 42.1274 24.2374C42.1697 24.1913 42.1697 24.116 42.1274 24.07C42.0849 24.0241 42.0503 24.0617 42.0503 24.1537ZM35.4284 28.1798C35.3223 28.6228 35.2107 29.1829 35.1804 29.4245C35.0262 30.6562 35.0002 31.1814 35.0935 31.1814C35.1502 31.1814 35.2301 30.834 35.2709 30.4091C35.3118 29.9843 35.4279 29.1945 35.5288 28.654C35.7579 27.4269 35.6878 27.0963 35.4284 28.1798ZM85.2568 28.3968C85.0916 29.2024 84.8502 31.6386 84.9935 31.056C85.0986 30.6283 85.536 27.52 85.497 27.4777C85.4738 27.4525 85.3657 27.866 85.2568 28.3968ZM77.0209 32.6142L75.6336 32.758L77.9766 32.7604C79.5638 32.7622 80.3066 32.7204 80.2794 32.631C80.2238 32.4486 78.6947 32.4407 77.0209 32.6142ZM74.8822 32.8756C74.8822 32.9101 74.9082 32.9384 74.94 32.9384C74.9718 32.9384 74.9978 32.9101 74.9978 32.8756C74.9978 32.8411 74.9718 32.8129 74.94 32.8129C74.9082 32.8129 74.8822 32.8411 74.8822 32.8756Z" fill="white"/>
</g>
<g filter="url(#filter1_f_6135_378)">
<path fill-rule="evenodd" clip-rule="evenodd" d="M5.08913 3.12793C2.63263 3.68889 2.38963 5.35334 4.3377 8.27437C4.56024 8.60807 4.79434 8.93009 4.85792 8.98982C5.03514 9.15648 5.8223 9.78471 6.592 10.3739C7.28598 10.9051 9.64965 12.2281 9.91785 12.2355C9.99611 12.2376 10.3203 12.3783 10.6382 12.5481C10.9561 12.7179 11.2864 12.8573 11.3722 12.858C11.4579 12.8586 11.692 12.937 11.8924 13.0324C12.0927 13.1277 12.6104 13.3258 13.0427 13.4728C15.1064 14.174 14.7429 15.5078 12.6258 15.0023C12.3592 14.9386 11.6729 14.7927 11.1006 14.678C10.5284 14.5633 9.95612 14.4194 9.82895 14.358C8.39325 13.6649 5.49375 12.8776 5.49375 13.1807C5.49375 13.6332 6.97107 16.0046 7.64759 16.6381C8.44041 17.3806 10.5456 18.7574 10.888 18.7574C10.9697 18.7574 11.2591 18.8639 11.531 18.9942C12.3482 19.3856 13.1569 19.6371 13.5957 19.6365C15.041 19.6344 15.8047 20.1387 15.3918 20.8229C15.159 21.2084 12.5367 21.3038 11.4396 20.9666C10.0694 20.5455 9.33994 20.6054 9.63762 21.1147C9.75531 21.3159 12.3274 23.1466 12.495 23.1485C12.5626 23.1491 12.8487 23.2735 13.1309 23.4246C14.2416 24.0197 18.4465 24.3028 20.349 23.9106C22.5618 23.4544 22.6987 23.4213 22.9349 23.2841C23.0621 23.2102 23.2986 23.1497 23.4603 23.1497C24.9757 23.1497 27.9879 21.3508 29.7464 19.3955C31.2597 17.7128 31.3172 17.4317 30.3512 16.4357C30.1503 16.2287 29.9 15.8616 29.7948 15.62C29.5427 15.0406 26.3648 11.5941 25.2623 10.7043C24.1604 9.81508 22.2368 8.40351 21.6924 8.08462C21.4622 7.94972 20.9617 7.64213 20.5802 7.40092C20.1987 7.1596 19.6005 6.8175 19.2508 6.64067C18.9011 6.46372 18.5109 6.26531 18.3837 6.19981C17.967 5.98483 16.2031 5.31619 15.4358 5.08239C15.0225 4.9564 14.5543 4.79614 14.3954 4.72624C14.2364 4.65634 13.8202 4.51503 13.4705 4.41212C11.8147 3.9252 11.4222 3.80661 11.0924 3.69379C10.8971 3.62702 10.5946 3.57243 10.42 3.57243C10.2456 3.57243 9.98918 3.50479 9.85022 3.42221C9.20977 3.04096 6.26634 2.85912 5.08913 3.12793ZM34.5401 17.7236C33.9471 18.3248 33.1157 20.4848 32.6548 22.6213C32.4034 23.7861 32.3477 23.9199 32.0851 23.9882C30.3333 24.4433 29.782 26.2195 31.1497 27.0012C31.4312 27.1621 31.6793 27.3129 31.7009 27.3364C31.7225 27.36 31.6567 27.797 31.5545 28.3077C30.8927 31.6177 31.0807 32.8129 32.2631 32.8129C32.9645 32.8129 33.2911 32.359 33.4536 31.1582C33.847 28.2535 34.1766 26.9166 34.4406 27.1545C34.5396 27.2438 34.6231 27.2444 34.7041 27.1564C34.7693 27.0857 35.1766 27.0446 35.6096 27.0653L36.3968 27.1028L36.7044 28.4205C37.4926 31.7961 38.0157 32.9384 38.774 32.9384C39.3687 32.9384 39.565 32.3109 39.3668 31.0435C39.2977 30.6018 39.1898 29.9014 39.1269 29.4873C39.064 29.0731 38.9287 28.3513 38.826 27.8831C38.6449 27.057 38.6462 27.0235 38.8727 26.7536C39.6475 25.8297 39.4715 24.7208 38.4725 24.2318C37.9405 23.9714 37.8745 23.7185 37.8498 21.8458C37.8424 21.2861 37.8115 20.941 37.7808 21.0791C37.5961 21.9127 37.4635 21.5536 37.303 19.7853C37.1961 18.6069 36.932 18.0044 36.5225 18.0044C36.443 18.0044 36.2235 17.8632 36.0346 17.6907C35.56 17.2572 34.9876 17.2698 34.5401 17.7236ZM84.5416 17.5958C83.9443 17.9979 83.4013 19.2989 82.673 22.0725L82.1815 23.9444L81.6656 24.1076C80.0653 24.6141 79.7894 27.1656 81.3349 27.1656C81.6244 27.1656 81.6236 27.4136 81.3291 28.797C81.2044 29.3837 81.0681 30.3541 81.0264 30.9533L80.9505 32.0429L81.3052 32.4279C82.211 33.4111 83.0606 32.7894 83.352 30.9305C83.8782 27.5712 84.0327 26.9438 84.2788 27.1656C84.3845 27.2608 84.4547 27.2627 84.5065 27.1717C84.5979 27.0112 86.1467 26.9947 86.237 27.1533C86.2725 27.2154 86.4807 28.0389 86.6998 28.9831C87.4535 32.2317 88.44 33.7254 89.1276 32.6594C89.4104 32.2213 89.1996 30.1815 88.6081 27.6316C88.4779 27.0705 88.4855 27.0348 88.8327 26.5776C89.4647 25.7454 89.194 24.5825 88.2772 24.1916C87.8074 23.9913 87.6891 23.5508 87.6891 22.0018C87.6891 21.6557 87.6399 21.5183 87.5157 21.5183C87.4204 21.5183 87.3423 21.4641 87.3423 21.3977C87.3423 19.7129 86.9682 18.2168 86.5073 18.0586C86.3624 18.0089 86.0832 17.8352 85.8864 17.6726C85.4673 17.3262 84.9831 17.2986 84.5416 17.5958ZM58.2886 17.5843C58.2453 17.6313 58.2098 18.1263 58.2097 18.6842C58.2094 21.4451 57.7684 24.3664 56.9614 26.952C56.5595 28.2397 56.477 28.1348 56.1417 25.9106C56.0014 24.9788 55.8134 23.8494 55.7243 23.4007C54.8898 19.2048 54.7009 18.6512 53.9147 18.0985C52.5672 17.1513 52.1353 18.4917 52.7697 21.6513C53.3278 24.4304 53.7979 27.5873 53.8829 29.125C53.945 30.2489 54.0053 30.5692 54.2228 30.9305C54.3683 31.172 54.5245 31.5109 54.57 31.6834C55.363 34.6938 59.5677 29.6459 60.6852 24.3419C61.5619 20.1811 61.216 17.8504 59.6968 17.6815L58.9396 17.5973L58.8594 19.549C58.7448 22.3392 58.4359 24.2222 57.7233 26.4754C57.3514 27.6514 56.8237 28.723 56.6886 28.5764C56.611 28.4921 56.6478 28.29 56.8004 27.9649C57.9502 25.5148 59.2343 16.5576 58.2886 17.5843ZM98.8451 17.8297C97.7641 17.9227 95.8835 18.0142 94.6658 18.033C93.4481 18.0517 92.5117 18.1087 92.5849 18.1594C92.6581 18.2101 92.988 18.2524 93.3181 18.2535C93.6481 18.2545 93.9555 18.321 94.0013 18.4014C94.0639 18.5112 93.654 18.5271 92.3456 18.4656C89.6164 18.3374 89.2406 18.9801 90.9002 20.9376C91.2901 21.3977 91.8662 21.5571 93.4116 21.6329L94.9145 21.7065L94.8986 22.1458C94.7154 27.2346 94.718 30.9541 94.905 31.4858C95.3924 32.8711 96.647 32.8859 96.885 31.5092C96.9874 30.9165 97.1666 30.9272 97.1769 31.5266C97.1835 31.9041 97.2047 31.9475 97.2844 31.7462C97.3391 31.6081 97.3874 29.2221 97.3919 26.444C97.3963 23.6659 97.4332 21.3928 97.4736 21.3928C97.7761 21.3928 100.531 20.8504 100.792 20.7395C100.997 20.6524 101.187 20.4301 101.296 20.1491C101.393 19.9014 101.579 19.4639 101.711 19.1772C101.94 18.6757 101.942 18.6428 101.747 18.3199C101.635 18.1353 101.573 17.904 101.607 17.806C101.683 17.5927 101.589 17.5935 98.8451 17.8297ZM41.3892 18.0529C41.1983 18.1431 40.971 18.3103 40.8837 18.4245C40.7965 18.5385 40.6592 18.6319 40.5786 18.6319C40.4981 18.6319 40.3159 18.7342 40.1737 18.859L39.9152 19.0863L40.1199 20.114C40.2431 20.7333 40.3818 21.1418 40.4688 21.1418C40.6608 21.1418 40.7029 21.2723 41.2181 23.4635C41.4616 24.4988 41.8208 26.0202 42.0164 26.8442C42.4336 28.6028 42.4121 28.4205 42.2025 28.4205C41.9653 28.4205 41.8726 28.166 41.5629 26.6636C41.4135 25.9389 41.2501 25.2943 41.1998 25.2312C41.0861 25.0883 41.183 25.8491 41.4109 26.8879C41.62 27.8403 41.5664 28.0871 41.1852 27.9297C39.3143 27.1576 39.1983 29.6908 41.0612 30.6358C41.9904 31.1072 42.1809 31.2554 42.3189 31.614C42.6722 32.5318 43.6751 32.831 44.4797 32.2586C44.7203 32.0874 44.8077 32.0879 45.3229 32.2633C51.365 34.3196 53.6568 29.7041 49.3552 24.1425C45.7769 19.516 42.9172 17.3299 41.3892 18.0529ZM65.451 18.1883C64.9454 18.3839 64.3973 18.9026 64.1476 19.4216C64.0549 19.6144 63.8625 19.8202 63.7202 19.8789C62.1486 20.5276 61.4542 27.5649 62.6822 30.3999C64.1232 33.7265 67.909 33.1718 69.0848 29.4615C69.9638 26.6882 69.1665 19.523 67.9248 19.0356C67.8271 18.9973 67.5602 18.7496 67.3315 18.4852C66.8626 17.9431 66.3101 17.8557 65.451 18.1883ZM71.1856 18.1342C70.7139 18.34 70.6534 18.7122 70.795 20.537C71.1355 24.9255 71.2887 26.6558 71.392 27.2828C71.4538 27.6578 71.5044 28.9223 71.5044 30.0925C71.5044 32.7751 71.5391 32.8179 73.3541 32.372C74.7178 32.0371 76.858 31.8011 78.3149 31.8252C80.1206 31.8551 80.4444 31.6068 80.0084 30.5269C79.917 30.3002 79.815 29.9729 79.782 29.7997C79.6394 29.0525 77.5737 28.7875 75.3194 29.2271C74.1888 29.4475 74.2862 29.7334 74.0322 25.4518C73.91 23.3919 73.7392 21.1983 73.6526 20.5771L73.495 19.4476L73.4824 20.3021C73.4689 21.2135 73.298 21.3479 73.1781 20.5413C73.0988 20.0072 72.8966 18.9203 72.8189 18.6106C72.725 18.2361 71.6623 17.9262 71.1856 18.1342ZM103.996 18.221C102.15 19.0114 101.832 28.8634 103.633 29.484C103.767 29.5301 104.08 29.8927 104.328 30.2898C106.696 34.0754 110.58 32.8111 111.731 27.8795C112.465 24.7396 112.239 19.169 111.349 18.4557L111.021 18.1927L110.767 18.5378C110.61 18.7501 110.4 18.8829 110.221 18.8829C109.476 18.8829 109.424 19.1009 109.417 22.2448C109.404 28.6265 108.787 30.3123 106.944 29.0016C106.567 28.7335 105.891 26.189 105.723 24.4047L105.622 23.338L105.66 24.7654C105.681 25.5595 105.654 26.1177 105.601 26.0236C105.173 25.2724 105.142 20.8985 105.562 20.5298C106.629 19.5923 105.316 17.6563 103.996 18.221ZM114.272 18.3533C113.722 18.6515 113.578 19.1611 113.614 20.6914C113.635 21.5976 113.603 21.9496 113.498 21.9883C113.39 22.0279 113.351 21.7473 113.342 20.8699C113.329 19.5612 113.216 18.914 113.066 19.2966C112.923 19.6631 113.096 28.9524 113.274 30.4523C113.47 32.1032 113.62 32.3892 114.354 32.5087C115.341 32.6692 115.36 32.5937 115.29 28.7603C115.224 25.1326 115.285 24.9029 115.783 26.919C117.158 32.4934 117.146 32.4618 117.776 32.4122L118.267 32.3737L118.511 31.4952C118.929 29.9944 119.296 28.1296 119.277 27.6048C119.259 27.1082 119.858 24.233 120.257 22.8987C120.455 22.2347 120.694 22.0633 120.694 22.585C120.694 22.7231 120.746 22.9207 120.809 23.0242C120.872 23.1278 121.033 23.7772 121.168 24.4674C121.303 25.1577 121.495 26.1459 121.596 26.6636C121.878 28.116 122.14 30.1961 122.14 30.9862C122.14 31.8998 122.255 32.1173 122.936 32.4922C124.299 33.2422 125.016 31.6837 124.521 29.048C123.963 26.0826 123.726 24.7563 123.464 23.1579C123.057 20.6663 122.675 19.5025 121.995 18.6753C121.406 17.9584 119.668 18.3912 119.543 19.2859C118.995 23.2224 117.65 28.7914 117.463 27.8961C116.968 25.5252 116.129 20.4414 116.128 19.8116C116.128 19.4652 115.626 18.5141 115.355 18.348C115.045 18.1578 114.629 18.1598 114.272 18.3533ZM71.5545 18.7397C71.5081 18.922 71.4807 20.3418 71.4935 21.8948C71.5289 26.1877 71.3142 25.2987 70.9601 19.6859C70.8997 18.7287 70.9115 18.6575 71.1612 18.4676C71.5017 18.2086 71.6614 18.319 71.5545 18.7397ZM115.646 19.981C115.704 20.1018 115.814 20.5959 115.891 21.0791C115.968 21.5622 116.131 22.479 116.253 23.1162C116.58 24.8249 116.36 25.1303 115.98 23.495C115.239 20.3059 115.098 18.8279 115.646 19.981ZM66.2692 20.2947C66.805 21.0525 67.2524 23.7108 67.2672 26.2244C67.2886 29.8689 66.4048 31.5786 64.9281 30.7496C64.122 30.2971 63.814 29.3748 64.5178 29.5209C64.8536 29.5905 64.853 29.5974 64.6275 28.1068C64.3166 26.0531 64.466 23.4229 64.9766 21.9575C65.5054 20.4404 65.9593 19.8565 66.2692 20.2947ZM92.0595 20.8183C92.8967 21.0133 93.0307 21.1006 92.6449 21.2003C92.2934 21.291 91.2475 21.0019 91.1855 20.7967C91.1277 20.6057 91.1488 20.6063 92.0595 20.8183ZM35.6503 21.9889C35.978 24.3007 35.9836 24.2737 35.1718 24.2773C34.5781 24.2798 34.5577 24.1449 34.9224 22.6284C35.3681 20.7751 35.466 20.689 35.6503 21.9889ZM85.6174 22.868C85.756 24.218 85.7318 24.274 85.0081 24.2773C84.4275 24.2799 84.4227 24.2511 84.7587 22.7636C85.2296 20.6784 85.3945 20.6984 85.6174 22.868ZM65.3864 21.717C65.392 21.8632 65.4194 21.8929 65.4563 21.7929C65.4897 21.7023 65.4855 21.594 65.4471 21.5523C65.4088 21.5106 65.3815 21.5847 65.3864 21.717ZM44.7382 22.6957C47.2588 24.6077 50.5381 29.0445 50.0519 29.8848C49.6118 30.6455 46.7985 30.5744 44.9967 29.7571C44.5069 29.5349 44.5429 29.6548 44.1104 26.8118C43.918 25.5475 43.6585 23.9708 43.5339 23.3081C43.2379 21.735 43.3778 21.6637 44.7382 22.6957ZM40.869 24.1537C40.869 24.2457 40.9037 24.2833 40.9461 24.2374C40.9884 24.1913 40.9884 24.116 40.9461 24.07C40.9037 24.0241 40.869 24.0617 40.869 24.1537ZM34.2471 28.1798C34.141 28.6228 34.0294 29.1829 33.9991 29.4245C33.8449 30.6562 33.8189 31.1814 33.9122 31.1814C33.969 31.1814 34.0488 30.834 34.0897 30.4091C34.1306 29.9843 34.2466 29.1945 34.3476 28.654C34.5766 27.4269 34.5065 27.0963 34.2471 28.1798ZM84.0756 28.3968C83.9104 29.2024 83.669 31.6386 83.8122 31.056C83.9173 30.6283 84.3547 27.52 84.3158 27.4777C84.2925 27.4525 84.1845 27.866 84.0756 28.3968ZM75.8396 32.6142L74.4523 32.758L76.7953 32.7604C78.3826 32.7622 79.1253 32.7204 79.0982 32.631C79.0426 32.4486 77.5135 32.4407 75.8396 32.6142ZM73.7009 32.8756C73.7009 32.9101 73.7269 32.9384 73.7587 32.9384C73.7905 32.9384 73.8165 32.9101 73.8165 32.8756C73.8165 32.8411 73.7905 32.8129 73.7587 32.8129C73.7269 32.8129 73.7009 32.8411 73.7009 32.8756Z" fill="#D1C12B"/>
</g>
<path fill-rule="evenodd" clip-rule="evenodd" d="M7.45168 3.12793C4.99518 3.68889 4.75218 5.35334 6.70024 8.27437C6.92279 8.60807 7.15689 8.93009 7.22047 8.98982C7.39769 9.15648 8.18485 9.78471 8.95455 10.3739C9.64853 10.9051 12.0122 12.2281 12.2804 12.2355C12.3587 12.2376 12.6828 12.3783 13.0007 12.5481C13.3187 12.7179 13.6489 12.8573 13.7347 12.858C13.8205 12.8586 14.0546 12.937 14.2549 13.0324C14.4553 13.1277 14.973 13.3258 15.4052 13.4728C17.469 14.174 17.1054 15.5078 14.9883 15.0023C14.7218 14.9386 14.0354 14.7927 13.4632 14.678C12.8909 14.5633 12.3187 14.4194 12.1915 14.358C10.7558 13.6649 7.8563 12.8776 7.8563 13.1807C7.8563 13.6332 9.33362 16.0046 10.0101 16.6381C10.803 17.3806 12.9081 18.7574 13.2506 18.7574C13.3323 18.7574 13.6217 18.8639 13.8936 18.9942C14.7108 19.3856 15.5194 19.6371 15.9583 19.6365C17.4036 19.6344 18.1673 20.1387 17.7543 20.8229C17.5216 21.2084 14.8992 21.3038 13.8021 20.9666C12.432 20.5455 11.7025 20.6054 12.0002 21.1147C12.1179 21.3159 14.69 23.1466 14.8576 23.1485C14.9251 23.1491 15.2112 23.2735 15.4934 23.4246C16.6042 24.0197 20.8091 24.3028 22.7116 23.9106C24.9244 23.4544 25.0613 23.4213 25.2974 23.2841C25.4246 23.2102 25.6611 23.1497 25.8229 23.1497C27.3382 23.1497 30.3504 21.3508 32.1089 19.3955C33.6223 17.7128 33.6798 17.4317 32.7138 16.4357C32.5128 16.2287 32.2626 15.8616 32.1574 15.62C31.9052 15.0406 28.7273 11.5941 27.6248 10.7043C26.523 9.81508 24.5993 8.40351 24.0549 8.08462C23.8247 7.94972 23.3243 7.64213 22.9428 7.40092C22.5613 7.1596 21.963 6.8175 21.6133 6.64067C21.2636 6.46372 20.8735 6.26531 20.7463 6.19981C20.3295 5.98483 18.5656 5.31619 17.7984 5.08239C17.3851 4.9564 16.9169 4.79614 16.7579 4.72624C16.599 4.65634 16.1828 4.51503 15.8331 4.41212C14.1773 3.9252 13.7848 3.80661 13.4549 3.69379C13.2597 3.62702 12.9572 3.57243 12.7826 3.57243C12.6081 3.57243 12.3517 3.50479 12.2128 3.42221C11.5723 3.04096 8.62889 2.85912 7.45168 3.12793ZM36.9026 17.7236C36.3097 18.3248 35.4782 20.4848 35.0173 22.6213C34.766 23.7861 34.7103 23.9199 34.4476 23.9882C32.6958 24.4433 32.1445 26.2195 33.5122 27.0012C33.7937 27.1621 34.0418 27.3129 34.0635 27.3364C34.0851 27.36 34.0193 27.797 33.9171 28.3077C33.2553 31.6177 33.4432 32.8129 34.6256 32.8129C35.327 32.8129 35.6536 32.359 35.8161 31.1582C36.2095 28.2535 36.5391 26.9166 36.8032 27.1545C36.9021 27.2438 36.9856 27.2444 37.0666 27.1564C37.1318 27.0857 37.5391 27.0446 37.9722 27.0653L38.7593 27.1028L39.067 28.4205C39.8552 31.7961 40.3783 32.9384 41.1365 32.9384C41.7312 32.9384 41.9275 32.3109 41.7294 31.0435C41.6602 30.6018 41.5524 29.9014 41.4895 29.4873C41.4266 29.0731 41.2912 28.3513 41.1886 27.8831C41.0074 27.057 41.0088 27.0235 41.2353 26.7536C42.01 25.8297 41.8341 24.7208 40.835 24.2318C40.303 23.9714 40.237 23.7185 40.2124 21.8458C40.205 21.2861 40.174 20.941 40.1434 21.0791C39.9586 21.9127 39.826 21.5536 39.6656 19.7853C39.5586 18.6069 39.2946 18.0044 38.885 18.0044C38.8056 18.0044 38.586 17.8632 38.3971 17.6907C37.9226 17.2572 37.3501 17.2698 36.9026 17.7236ZM86.9041 17.5958C86.3069 17.9979 85.7639 19.2989 85.0356 22.0725L84.544 23.9444L84.0282 24.1076C82.4279 24.6141 82.1519 27.1656 83.6974 27.1656C83.9869 27.1656 83.9861 27.4136 83.6917 28.797C83.5669 29.3837 83.4306 30.3541 83.3889 30.9533L83.3131 32.0429L83.6677 32.4279C84.5735 33.4111 85.4232 32.7894 85.7145 30.9305C86.2408 27.5712 86.3952 26.9438 86.6413 27.1656C86.747 27.2608 86.8173 27.2627 86.8691 27.1717C86.9604 27.0112 88.5093 26.9947 88.5996 27.1533C88.6351 27.2154 88.8433 28.0389 89.0623 28.9831C89.8161 32.2317 90.8026 33.7254 91.4902 32.6594C91.7729 32.2213 91.5622 30.1815 90.9706 27.6316C90.8405 27.0705 90.8481 27.0348 91.1953 26.5776C91.8273 25.7454 91.5565 24.5825 90.6398 24.1916C90.17 23.9913 90.0517 23.5508 90.0517 22.0018C90.0517 21.6557 90.0024 21.5183 89.8783 21.5183C89.7829 21.5183 89.7049 21.4641 89.7049 21.3977C89.7049 19.7129 89.3308 18.2168 88.8699 18.0586C88.725 18.0089 88.4457 17.8352 88.2489 17.6726C87.8299 17.3262 87.3456 17.2986 86.9041 17.5958ZM60.6512 17.5843C60.6078 17.6313 60.5723 18.1263 60.5722 18.6842C60.572 21.4451 60.131 24.3664 59.3239 26.952C58.9221 28.2397 58.8395 28.1348 58.5043 25.9106C58.3639 24.9788 58.1759 23.8494 58.0868 23.4007C57.2524 19.2048 57.0635 18.6512 56.2772 18.0985C54.9298 17.1513 54.4978 18.4917 55.1323 21.6513C55.6903 24.4304 56.1605 27.5873 56.2455 29.125C56.3075 30.2489 56.3679 30.5692 56.5853 30.9305C56.7309 31.172 56.8871 31.5109 56.9325 31.6834C57.7256 34.6938 61.9302 29.6459 63.0478 24.3419C63.9244 20.1811 63.5785 17.8504 62.0594 17.6815L61.3021 17.5973L61.2219 19.549C61.1074 22.3392 60.7985 24.2222 60.0859 26.4754C59.714 27.6514 59.1862 28.723 59.0512 28.5764C58.9735 28.4921 59.0104 28.29 59.163 27.9649C60.3128 25.5148 61.5968 16.5576 60.6512 17.5843ZM101.208 17.8297C100.127 17.9227 98.246 18.0142 97.0284 18.033C95.8107 18.0517 94.8743 18.1087 94.9475 18.1594C95.0207 18.2101 95.3506 18.2524 95.6806 18.2535C96.0107 18.2545 96.3181 18.321 96.3639 18.4014C96.4264 18.5112 96.0166 18.5271 94.7082 18.4656C91.979 18.3374 91.6031 18.9801 93.2627 20.9376C93.6527 21.3977 94.2287 21.5571 95.7741 21.6329L97.277 21.7065L97.2612 22.1458C97.078 27.2346 97.0805 30.9541 97.2676 31.4858C97.7549 32.8711 99.0096 32.8859 99.2475 31.5092C99.3499 30.9165 99.5291 30.9272 99.5394 31.5266C99.546 31.9041 99.5673 31.9475 99.6469 31.7462C99.7016 31.6081 99.7499 29.2221 99.7544 26.444C99.7588 23.6659 99.7957 21.3928 99.8362 21.3928C100.139 21.3928 102.894 20.8504 103.155 20.7395C103.36 20.6524 103.549 20.4301 103.659 20.1491C103.755 19.9014 103.942 19.4639 104.073 19.1772C104.303 18.6757 104.304 18.6428 104.109 18.3199C103.998 18.1353 103.935 17.904 103.97 17.806C104.045 17.5927 103.951 17.5935 101.208 17.8297ZM43.7518 18.0529C43.5609 18.1431 43.3335 18.3103 43.2462 18.4245C43.159 18.5385 43.0217 18.6319 42.9411 18.6319C42.8607 18.6319 42.6785 18.7342 42.5363 18.859L42.2778 19.0863L42.4824 20.114C42.6056 20.7333 42.7444 21.1418 42.8313 21.1418C43.0233 21.1418 43.0654 21.2723 43.5807 23.4635C43.8241 24.4988 44.1833 26.0202 44.3789 26.8442C44.7961 28.6028 44.7746 28.4205 44.565 28.4205C44.3278 28.4205 44.2351 28.166 43.9254 26.6636C43.776 25.9389 43.6127 25.2943 43.5624 25.2312C43.4486 25.0883 43.5455 25.8491 43.7735 26.8879C43.9825 27.8403 43.929 28.0871 43.5477 27.9297C41.6769 27.1576 41.5608 29.6908 43.4238 30.6358C44.3529 31.1072 44.5434 31.2554 44.6814 31.614C45.0347 32.5318 46.0376 32.831 46.8422 32.2586C47.0828 32.0874 47.1702 32.0879 47.6855 32.2633C53.7276 34.3196 56.0193 29.7041 51.7178 24.1425C48.1394 19.516 45.2797 17.3299 43.7518 18.0529ZM67.8135 18.1883C67.308 18.3839 66.7599 18.9026 66.5102 19.4216C66.4175 19.6144 66.2251 19.8202 66.0828 19.8789C64.5111 20.5276 63.8168 27.5649 65.0448 30.3999C66.4858 33.7265 70.2715 33.1718 71.4473 29.4615C72.3264 26.6882 71.5291 19.523 70.2873 19.0356C70.1897 18.9973 69.9227 18.7496 69.6941 18.4852C69.2252 17.9431 68.6727 17.8557 67.8135 18.1883ZM73.5481 18.1342C73.0764 18.34 73.016 18.7122 73.1576 20.537C73.498 24.9255 73.6512 26.6558 73.7546 27.2828C73.8163 27.6578 73.867 28.9223 73.867 30.0925C73.867 32.7751 73.9016 32.8179 75.7166 32.372C77.0803 32.0371 79.2205 31.8011 80.6775 31.8252C82.4831 31.8551 82.8069 31.6068 82.371 30.5269C82.2795 30.3002 82.1776 29.9729 82.1445 29.7997C82.002 29.0525 79.9362 28.7875 77.6819 29.2271C76.5513 29.4475 76.6488 29.7334 76.3948 25.4518C76.2726 23.3919 76.1017 21.1983 76.0151 20.5771L75.8576 19.4476L75.845 20.3021C75.8314 21.2135 75.6606 21.3479 75.5407 20.5413C75.4614 20.0072 75.2592 18.9203 75.1815 18.6106C75.0875 18.2361 74.0249 17.9262 73.5481 18.1342ZM106.359 18.221C104.512 19.0114 104.195 28.8634 105.996 29.484C106.13 29.5301 106.442 29.8927 106.691 30.2898C109.059 34.0754 112.942 32.8111 114.094 27.8795C114.827 24.7396 114.602 19.169 113.712 18.4557L113.384 18.1927L113.13 18.5378C112.973 18.7501 112.763 18.8829 112.583 18.8829C111.838 18.8829 111.786 19.1009 111.78 22.2448C111.766 28.6265 111.149 30.3123 109.307 29.0016C108.93 28.7335 108.254 26.189 108.086 24.4047L107.985 23.338L108.022 24.7654C108.043 25.5595 108.017 26.1177 107.963 26.0236C107.536 25.2724 107.504 20.8985 107.924 20.5298C108.991 19.5923 107.679 17.6563 106.359 18.221ZM116.635 18.3533C116.084 18.6515 115.941 19.1611 115.976 20.6914C115.997 21.5976 115.966 21.9496 115.861 21.9883C115.752 22.0279 115.713 21.7473 115.705 20.8699C115.692 19.5612 115.578 18.914 115.429 19.2966C115.285 19.6631 115.459 28.9524 115.637 30.4523C115.833 32.1032 115.983 32.3892 116.717 32.5087C117.703 32.6692 117.722 32.5937 117.652 28.7603C117.586 25.1326 117.648 24.9029 118.145 26.919C119.52 32.4934 119.509 32.4618 120.139 32.4122L120.629 32.3737L120.874 31.4952C121.292 29.9944 121.659 28.1296 121.64 27.6048C121.622 27.1082 122.22 24.233 122.619 22.8987C122.818 22.2347 123.057 22.0633 123.057 22.585C123.057 22.7231 123.108 22.9207 123.171 23.0242C123.234 23.1278 123.396 23.7772 123.531 24.4674C123.665 25.1577 123.858 26.1459 123.959 26.6636C124.24 28.116 124.502 30.1961 124.502 30.9862C124.502 31.8998 124.617 32.1173 125.299 32.4922C126.662 33.2422 127.379 31.6837 126.884 29.048C126.326 26.0826 126.088 24.7563 125.827 23.1579C125.419 20.6663 125.038 19.5025 124.358 18.6753C123.769 17.9584 122.03 18.3912 121.906 19.2859C121.358 23.2224 120.012 28.7914 119.826 27.8961C119.331 25.5252 118.492 20.4414 118.491 19.8116C118.491 19.4652 117.988 18.5141 117.718 18.348C117.408 18.1578 116.992 18.1598 116.635 18.3533ZM73.917 18.7397C73.8706 18.922 73.8432 20.3418 73.8561 21.8948C73.8914 26.1877 73.6768 25.2987 73.3227 19.6859C73.2622 18.7287 73.274 18.6575 73.5237 18.4676C73.8643 18.2086 74.0239 18.319 73.917 18.7397ZM118.009 19.981C118.066 20.1018 118.176 20.5959 118.253 21.0791C118.33 21.5622 118.493 22.479 118.615 23.1162C118.943 24.8249 118.723 25.1303 118.343 23.495C117.601 20.3059 117.461 18.8279 118.009 19.981ZM68.6318 20.2947C69.1676 21.0525 69.615 23.7108 69.6298 26.2244C69.6512 29.8689 68.7674 31.5786 67.2906 30.7496C66.4845 30.2971 66.1765 29.3748 66.8803 29.5209C67.2162 29.5905 67.2156 29.5974 66.99 28.1068C66.6792 26.0531 66.8285 23.4229 67.3392 21.9575C67.868 20.4404 68.3218 19.8565 68.6318 20.2947ZM94.422 20.8183C95.2593 21.0133 95.3932 21.1006 95.0075 21.2003C94.6559 21.291 93.61 21.0019 93.5481 20.7967C93.4902 20.6057 93.5113 20.6063 94.422 20.8183ZM38.0129 21.9889C38.3405 24.3007 38.3462 24.2737 37.5344 24.2773C36.9406 24.2798 36.9203 24.1449 37.2849 22.6284C37.7307 20.7751 37.8286 20.689 38.0129 21.9889ZM87.9799 22.868C88.1185 24.218 88.0944 24.274 87.3707 24.2773C86.79 24.2799 86.7853 24.2511 87.1212 22.7636C87.5922 20.6784 87.757 20.6984 87.9799 22.868ZM67.749 21.717C67.7545 21.8632 67.7819 21.8929 67.8188 21.7929C67.8522 21.7023 67.8481 21.594 67.8097 21.5523C67.7713 21.5106 67.744 21.5847 67.749 21.717ZM47.1007 22.6957C49.6214 24.6077 52.9007 29.0445 52.4144 29.8848C51.9743 30.6455 49.161 30.5744 47.3592 29.7571C46.8694 29.5349 46.9055 29.6548 46.473 26.8118C46.2805 25.5475 46.0211 23.9708 45.8965 23.3081C45.6004 21.735 45.7404 21.6637 47.1007 22.6957ZM43.2315 24.1537C43.2315 24.2457 43.2662 24.2833 43.3086 24.2374C43.351 24.1913 43.351 24.116 43.3086 24.07C43.2662 24.0241 43.2315 24.0617 43.2315 24.1537ZM36.6097 28.1798C36.5035 28.6228 36.392 29.1829 36.3617 29.4245C36.2075 30.6562 36.1815 31.1814 36.2747 31.1814C36.3315 31.1814 36.4114 30.834 36.4522 30.4091C36.4931 29.9843 36.6092 29.1945 36.7101 28.654C36.9391 27.4269 36.8691 27.0963 36.6097 28.1798ZM86.4381 28.3968C86.2729 29.2024 86.0315 31.6386 86.1748 31.056C86.2798 30.6283 86.7173 27.52 86.6783 27.4777C86.6551 27.4525 86.547 27.866 86.4381 28.3968ZM78.2021 32.6142L76.8149 32.758L79.1579 32.7604C80.7451 32.7622 81.4879 32.7204 81.4607 32.631C81.4051 32.4486 79.876 32.4407 78.2021 32.6142ZM76.0634 32.8756C76.0634 32.9101 76.0895 32.9384 76.1212 32.9384C76.153 32.9384 76.1791 32.9101 76.1791 32.8756C76.1791 32.8411 76.153 32.8129 76.1212 32.8129C76.0895 32.8129 76.0634 32.8411 76.0634 32.8756Z" fill="#A332CA"/>
<path fill-rule="evenodd" clip-rule="evenodd" d="M6.2704 3.12793C3.81391 3.68889 3.5709 5.35334 5.51897 8.27437C5.74151 8.60807 5.97561 8.93009 6.03919 8.98982C6.21642 9.15648 7.00357 9.78471 7.77327 10.3739C8.46725 10.9051 10.8309 12.2281 11.0991 12.2355C11.1774 12.2376 11.5015 12.3783 11.8195 12.5481C12.1374 12.7179 12.4677 12.8573 12.5534 12.858C12.6392 12.8586 12.8733 12.937 13.0737 13.0324C13.274 13.1277 13.7917 13.3258 14.2239 13.4728C16.2877 14.174 15.9241 15.5078 13.8071 15.0023C13.5405 14.9386 12.8541 14.7927 12.2819 14.678C11.7096 14.5633 11.1374 14.4194 11.0102 14.358C9.57452 13.6649 6.67502 12.8776 6.67502 13.1807C6.67502 13.6332 8.15234 16.0046 8.82887 16.6381C9.62169 17.3806 11.7269 18.7574 12.0693 18.7574C12.151 18.7574 12.4404 18.8639 12.7123 18.9942C13.5295 19.3856 14.3382 19.6371 14.777 19.6365C16.2223 19.6344 16.986 20.1387 16.573 20.8229C16.3403 21.2084 13.7179 21.3038 12.6208 20.9666C11.2507 20.5455 10.5212 20.6054 10.8189 21.1147C10.9366 21.3159 13.5087 23.1466 13.6763 23.1485C13.7438 23.1491 14.0299 23.2735 14.3121 23.4246C15.4229 24.0197 19.6278 24.3028 21.5303 23.9106C23.7431 23.4544 23.88 23.4213 24.1162 23.2841C24.2433 23.2102 24.4799 23.1497 24.6416 23.1497C26.1569 23.1497 29.1692 21.3508 30.9276 19.3955C32.441 17.7128 32.4985 17.4317 31.5325 16.4357C31.3316 16.2287 31.0813 15.8616 30.9761 15.62C30.7239 15.0406 27.5461 11.5941 26.4435 10.7043C25.3417 9.81508 23.418 8.40351 22.8736 8.08462C22.6435 7.94972 22.143 7.64213 21.7615 7.40092C21.38 7.1596 20.7818 6.8175 20.4321 6.64067C20.0824 6.46372 19.6922 6.26531 19.565 6.19981C19.1483 5.98483 17.3844 5.31619 16.6171 5.08239C16.2038 4.9564 15.7356 4.79614 15.5766 4.72624C15.4177 4.65634 15.0015 4.51503 14.6518 4.41212C12.996 3.9252 12.6035 3.80661 12.2737 3.69379C12.0784 3.62702 11.7759 3.57243 11.6013 3.57243C11.4269 3.57243 11.1705 3.50479 11.0315 3.42221C10.391 3.04096 7.44761 2.85912 6.2704 3.12793ZM35.7213 17.7236C35.1284 18.3248 34.297 20.4848 33.836 22.6213C33.5847 23.7861 33.529 23.9199 33.2663 23.9882C31.5146 24.4433 30.9632 26.2195 32.331 27.0012C32.6125 27.1621 32.8606 27.3129 32.8822 27.3364C32.9038 27.36 32.838 27.797 32.7358 28.3077C32.074 31.6177 32.262 32.8129 33.4444 32.8129C34.1457 32.8129 34.4723 32.359 34.6349 31.1582C35.0283 28.2535 35.3579 26.9166 35.6219 27.1545C35.7209 27.2438 35.8043 27.2444 35.8854 27.1564C35.9506 27.0857 36.3578 27.0446 36.7909 27.0653L37.5781 27.1028L37.8857 28.4205C38.6739 31.7961 39.197 32.9384 39.9553 32.9384C40.5499 32.9384 40.7462 32.3109 40.5481 31.0435C40.4789 30.6018 40.3711 29.9014 40.3082 29.4873C40.2453 29.0731 40.1099 28.3513 40.0073 27.8831C39.8261 27.057 39.8275 27.0235 40.054 26.7536C40.8288 25.8297 40.6528 24.7208 39.6538 24.2318C39.1217 23.9714 39.0557 23.7185 39.0311 21.8458C39.0237 21.2861 38.9927 20.941 38.9621 21.0791C38.7774 21.9127 38.6448 21.5536 38.4843 19.7853C38.3774 18.6069 38.1133 18.0044 37.7037 18.0044C37.6243 18.0044 37.4048 17.8632 37.2159 17.6907C36.7413 17.2572 36.1688 17.2698 35.7213 17.7236ZM85.7228 17.5958C85.1256 17.9979 84.5826 19.2989 83.8543 22.0725L83.3627 23.9444L82.8469 24.1076C81.2466 24.6141 80.9706 27.1656 82.5162 27.1656C82.8056 27.1656 82.8048 27.4136 82.5104 28.797C82.3856 29.3837 82.2494 30.3541 82.2076 30.9533L82.1318 32.0429L82.4865 32.4279C83.3922 33.4111 84.2419 32.7894 84.5332 30.9305C85.0595 27.5712 85.2139 26.9438 85.4601 27.1656C85.5657 27.2608 85.636 27.2627 85.6878 27.1717C85.7791 27.0112 87.328 26.9947 87.4183 27.1533C87.4538 27.2154 87.662 28.0389 87.8811 28.9831C88.6348 32.2317 89.6213 33.7254 90.3089 32.6594C90.5917 32.2213 90.3809 30.1815 89.7894 27.6316C89.6592 27.0705 89.6668 27.0348 90.014 26.5776C90.646 25.7454 90.3752 24.5825 89.4585 24.1916C88.9887 23.9913 88.8704 23.5508 88.8704 22.0018C88.8704 21.6557 88.8212 21.5183 88.697 21.5183C88.6016 21.5183 88.5236 21.4641 88.5236 21.3977C88.5236 19.7129 88.1495 18.2168 87.6886 18.0586C87.5437 18.0089 87.2644 17.8352 87.0677 17.6726C86.6486 17.3262 86.1643 17.2986 85.7228 17.5958ZM59.4699 17.5843C59.4265 17.6313 59.3911 18.1263 59.3909 18.6842C59.3907 21.4451 58.9497 24.3664 58.1426 26.952C57.7408 28.2397 57.6582 28.1348 57.323 25.9106C57.1826 24.9788 56.9947 23.8494 56.9055 23.4007C56.0711 19.2048 55.8822 18.6512 55.096 18.0985C53.7485 17.1513 53.3166 18.4917 53.951 21.6513C54.509 24.4304 54.9792 27.5873 55.0642 29.125C55.1263 30.2489 55.1866 30.5692 55.4041 30.9305C55.5496 31.172 55.7058 31.5109 55.7512 31.6834C56.5443 34.6938 60.749 29.6459 61.8665 24.3419C62.7431 20.1811 62.3972 17.8504 60.8781 17.6815L60.1209 17.5973L60.0406 19.549C59.9261 22.3392 59.6172 24.2222 58.9046 26.4754C58.5327 27.6514 58.0049 28.723 57.8699 28.5764C57.7922 28.4921 57.8291 28.29 57.9817 27.9649C59.1315 25.5148 60.4156 16.5576 59.4699 17.5843ZM100.026 17.8297C98.9454 17.9227 97.0648 18.0142 95.8471 18.033C94.6294 18.0517 93.693 18.1087 93.7662 18.1594C93.8394 18.2101 94.1693 18.2524 94.4994 18.2535C94.8294 18.2545 95.1368 18.321 95.1826 18.4014C95.2451 18.5112 94.8353 18.5271 93.5269 18.4656C90.7977 18.3374 90.4218 18.9801 92.0815 20.9376C92.4714 21.3977 93.0475 21.5571 94.5929 21.6329L96.0957 21.7065L96.0799 22.1458C95.8967 27.2346 95.8992 30.9541 96.0863 31.4858C96.5737 32.8711 97.8283 32.8859 98.0662 31.5092C98.1687 30.9165 98.3479 30.9272 98.3581 31.5266C98.3647 31.9041 98.386 31.9475 98.4657 31.7462C98.5203 31.6081 98.5687 29.2221 98.5732 26.444C98.5776 23.6659 98.6144 21.3928 98.6549 21.3928C98.9573 21.3928 101.712 20.8504 101.973 20.7395C102.178 20.6524 102.368 20.4301 102.478 20.1491C102.574 19.9014 102.761 19.4639 102.892 19.1772C103.122 18.6757 103.123 18.6428 102.928 18.3199C102.817 18.1353 102.754 17.904 102.788 17.806C102.864 17.5927 102.77 17.5935 100.026 17.8297ZM42.5705 18.0529C42.3796 18.1431 42.1522 18.3103 42.0649 18.4245C41.9778 18.5385 41.8404 18.6319 41.7599 18.6319C41.6794 18.6319 41.4972 18.7342 41.355 18.859L41.0965 19.0863L41.3011 20.114C41.4244 20.7333 41.5631 21.1418 41.65 21.1418C41.842 21.1418 41.8841 21.2723 42.3994 23.4635C42.6428 24.4988 43.002 26.0202 43.1976 26.8442C43.6149 28.6028 43.5934 28.4205 43.3838 28.4205C43.1465 28.4205 43.0538 28.166 42.7441 26.6636C42.5948 25.9389 42.4314 25.2943 42.3811 25.2312C42.2674 25.0883 42.3642 25.8491 42.5922 26.8879C42.8012 27.8403 42.7477 28.0871 42.3664 27.9297C40.4956 27.1576 40.3795 29.6908 42.2425 30.6358C43.1716 31.1072 43.3621 31.2554 43.5002 31.614C43.8535 32.5318 44.8563 32.831 45.661 32.2586C45.9015 32.0874 45.9889 32.0879 46.5042 32.2633C52.5463 34.3196 54.8381 29.7041 50.5365 24.1425C46.9582 19.516 44.0984 17.3299 42.5705 18.0529ZM66.6322 18.1883C66.1267 18.3839 65.5786 18.9026 65.3289 19.4216C65.2362 19.6144 65.0438 19.8202 64.9015 19.8789C63.3298 20.5276 62.6355 27.5649 63.8635 30.3999C65.3045 33.7265 69.0902 33.1718 70.266 29.4615C71.1451 26.6882 70.3478 19.523 69.1061 19.0356C69.0084 18.9973 68.7414 18.7496 68.5128 18.4852C68.0439 17.9431 67.4914 17.8557 66.6322 18.1883ZM72.3668 18.1342C71.8952 18.34 71.8347 18.7122 71.9763 20.537C72.3168 24.9255 72.4699 26.6558 72.5733 27.2828C72.635 27.6578 72.6857 28.9223 72.6857 30.0925C72.6857 32.7751 72.7203 32.8179 74.5353 32.372C75.899 32.0371 78.0392 31.8011 79.4962 31.8252C81.3018 31.8551 81.6257 31.6068 81.1897 30.5269C81.0983 30.3002 80.9963 29.9729 80.9632 29.7997C80.8207 29.0525 78.7549 28.7875 76.5006 29.2271C75.37 29.4475 75.4675 29.7334 75.2135 25.4518C75.0913 23.3919 74.9204 21.1983 74.8338 20.5771L74.6763 19.4476L74.6637 20.3021C74.6501 21.2135 74.4793 21.3479 74.3594 20.5413C74.2801 20.0072 74.0779 18.9203 74.0002 18.6106C73.9062 18.2361 72.8436 17.9262 72.3668 18.1342ZM105.178 18.221C103.331 19.0114 103.013 28.8634 104.815 29.484C104.948 29.5301 105.261 29.8927 105.509 30.2898C107.878 34.0754 111.761 32.8111 112.913 27.8795C113.646 24.7396 113.42 19.169 112.531 18.4557L112.203 18.1927L111.948 18.5378C111.792 18.7501 111.582 18.8829 111.402 18.8829C110.657 18.8829 110.605 19.1009 110.598 22.2448C110.585 28.6265 109.968 30.3123 108.125 29.0016C107.748 28.7335 107.073 26.189 106.904 24.4047L106.804 23.338L106.841 24.7654C106.862 25.5595 106.836 26.1177 106.782 26.0236C106.354 25.2724 106.323 20.8985 106.743 20.5298C107.81 19.5923 106.497 17.6563 105.178 18.221ZM115.453 18.3533C114.903 18.6515 114.76 19.1611 114.795 20.6914C114.816 21.5976 114.785 21.9496 114.679 21.9883C114.571 22.0279 114.532 21.7473 114.523 20.8699C114.51 19.5612 114.397 18.914 114.247 19.2966C114.104 19.6631 114.277 28.9524 114.455 30.4523C114.651 32.1032 114.802 32.3892 115.536 32.5087C116.522 32.6692 116.541 32.5937 116.471 28.7603C116.405 25.1326 116.467 24.9029 116.964 26.919C118.339 32.4934 118.327 32.4618 118.957 32.4122L119.448 32.3737L119.693 31.4952C120.11 29.9944 120.477 28.1296 120.459 27.6048C120.441 27.1082 121.039 24.233 121.438 22.8987C121.637 22.2347 121.876 22.0633 121.876 22.585C121.876 22.7231 121.927 22.9207 121.99 23.0242C122.053 23.1278 122.215 23.7772 122.349 24.4674C122.484 25.1577 122.677 26.1459 122.777 26.6636C123.059 28.116 123.321 30.1961 123.321 30.9862C123.321 31.8998 123.436 32.1173 124.118 32.4922C125.481 33.2422 126.198 31.6837 125.702 29.048C125.145 26.0826 124.907 24.7563 124.645 23.1579C124.238 20.6663 123.857 19.5025 123.177 18.6753C122.587 17.9584 120.849 18.3912 120.724 19.2859C120.177 23.2224 118.831 28.7914 118.644 27.8961C118.149 25.5252 117.31 20.4414 117.31 19.8116C117.309 19.4652 116.807 18.5141 116.537 18.348C116.227 18.1578 115.811 18.1598 115.453 18.3533ZM72.7357 18.7397C72.6894 18.922 72.662 20.3418 72.6748 21.8948C72.7102 26.1877 72.4955 25.2987 72.1414 19.6859C72.0809 18.7287 72.0927 18.6575 72.3424 18.4676C72.683 18.2086 72.8427 18.319 72.7357 18.7397ZM116.827 19.981C116.885 20.1018 116.995 20.5959 117.072 21.0791C117.149 21.5622 117.312 22.479 117.434 23.1162C117.761 24.8249 117.541 25.1303 117.161 23.495C116.42 20.3059 116.28 18.8279 116.827 19.981ZM67.4505 20.2947C67.9863 21.0525 68.4337 23.7108 68.4485 26.2244C68.4699 29.8689 67.5861 31.5786 66.1093 30.7496C65.3032 30.2971 64.9953 29.3748 65.6991 29.5209C66.0349 29.5905 66.0343 29.5974 65.8088 28.1068C65.4979 26.0531 65.6473 23.4229 66.1579 21.9575C66.6867 20.4404 67.1405 19.8565 67.4505 20.2947ZM93.2408 20.8183C94.078 21.0133 94.212 21.1006 93.8262 21.2003C93.4746 21.291 92.4287 21.0019 92.3668 20.7967C92.309 20.6057 92.33 20.6063 93.2408 20.8183ZM36.8316 21.9889C37.1592 24.3007 37.1649 24.2737 36.3531 24.2773C35.7594 24.2798 35.739 24.1449 36.1036 22.6284C36.5494 20.7751 36.6473 20.689 36.8316 21.9889ZM86.7987 22.868C86.9373 24.218 86.9131 24.274 86.1894 24.2773C85.6087 24.2799 85.604 24.2511 85.9399 22.7636C86.4109 20.6784 86.5758 20.6984 86.7987 22.868ZM66.5677 21.717C66.5733 21.8632 66.6007 21.8929 66.6375 21.7929C66.6709 21.7023 66.6668 21.594 66.6284 21.5523C66.59 21.5106 66.5627 21.5847 66.5677 21.717ZM45.9194 22.6957C48.4401 24.6077 51.7194 29.0445 51.2331 29.8848C50.793 30.6455 47.9798 30.5744 46.1779 29.7571C45.6881 29.5349 45.7242 29.6548 45.2917 26.8118C45.0992 25.5475 44.8398 23.9708 44.7152 23.3081C44.4191 21.735 44.5591 21.6637 45.9194 22.6957ZM42.0503 24.1537C42.0503 24.2457 42.0849 24.2833 42.1274 24.2374C42.1697 24.1913 42.1697 24.116 42.1274 24.07C42.0849 24.0241 42.0503 24.0617 42.0503 24.1537ZM35.4284 28.1798C35.3223 28.6228 35.2107 29.1829 35.1804 29.4245C35.0262 30.6562 35.0002 31.1814 35.0935 31.1814C35.1502 31.1814 35.2301 30.834 35.2709 30.4091C35.3118 29.9843 35.4279 29.1945 35.5288 28.654C35.7579 27.4269 35.6878 27.0963 35.4284 28.1798ZM85.2568 28.3968C85.0916 29.2024 84.8502 31.6386 84.9935 31.056C85.0986 30.6283 85.536 27.52 85.497 27.4777C85.4738 27.4525 85.3657 27.866 85.2568 28.3968ZM77.0209 32.6142L75.6336 32.758L77.9766 32.7604C79.5638 32.7622 80.3066 32.7204 80.2794 32.631C80.2238 32.4486 78.6947 32.4407 77.0209 32.6142ZM74.8822 32.8756C74.8822 32.9101 74.9082 32.9384 74.94 32.9384C74.9718 32.9384 74.9978 32.9101 74.9978 32.8756C74.9978 32.8411 74.9718 32.8129 74.94 32.8129C74.9082 32.8129 74.8822 32.8411 74.8822 32.8756Z" fill="white"/>
<defs>
<filter id="filter0_d_6135_378" x="4.22192" y="3" width="129.637" height="44" filterUnits="userSpaceOnUse" color-interpolation-filters="sRGB">
<feFlood flood-opacity="0" result="BackgroundImageFix"/>
<feColorMatrix in="SourceAlpha" type="matrix" values="0 0 0 0 0 0 0 0 0 0 0 0 0 0 0 0 0 0 127 0" result="hardAlpha"/>
<feOffset dx="4" dy="10"/>
<feGaussianBlur stdDeviation="2"/>
<feComposite in2="hardAlpha" operator="out"/>
<feColorMatrix type="matrix" values="0 0 0 0 0 0 0 0 0 0 0 0 0 0 0 0 0 0 0.37 0"/>
<feBlend mode="normal" in2="BackgroundImageFix" result="effect1_dropShadow_6135_378"/>
<feBlend mode="normal" in="SourceGraphic" in2="effect1_dropShadow_6135_378" result="shape"/>
</filter>
<filter id="filter1_f_6135_378" x="0.0406494" y="0" width="127.637" height="36" filterUnits="userSpaceOnUse" color-interpolation-filters="sRGB">
<feFlood flood-opacity="0" result="BackgroundImageFix"/>
<feBlend mode="normal" in="SourceGraphic" in2="BackgroundImageFix" result="shape"/>
<feGaussianBlur stdDeviation="1.5" result="effect1_foregroundBlur_6135_378"/>
</filter>
</defs>
</svg>
